# xmcd
#
# Track frame offsets:
#   150
#   17727
#   32955
#   46267
#   61172
#   75671
#   88119
#   101619
#   115309
#   130051
#   144227
#   160913
#   175791
#   189346
#   203360
#   220694
#   233896
#   247612
#   259735
#   270132
#   284551
#   298484
#   309880
#   317119
#   328623
#   342670
#
# Disc length: 4755 seconds
#
# Revision: 0
# Processed by: cddbd v1.5.1PL2 Copyright (c) Steve Scherf et al.
# Submitted via: uFREEDB ActiveX Control 1.5
#
DISCID=6c12911a
DTITLE=Chico Rey and Parana - Seleção de Ouro
DYEAR=2005
DGENRE=Country
TTITLE0=Quem Será Seu Outro Amor
TTITLE1=Canarinho Prisioneiro
TTITLE2=Alma Transparente
TTITLE3=Quem Bate Nunca Se Lembra
TTITLE4=Tranque a Porta e Me Beije
TTITLE5=Perder Você é Abraçar a Solidaõ
TTITLE6=Amor Rebelde
TTITLE7=Só Você
TTITLE8=Você Me Enganou
TTITLE9=Outros Caminhos Sem Você
TTITLE10=Você Naõ Sabe Amar
TTITLE11=Feiticeiro
TTITLE12=Capricho do Destino
TTITLE13=Encanto e Magia
TTITLE14=No Colo da Noite
TTITLE15=Chance de Ouro
TTITLE16=Saco de Ouro
TTITLE17=Amor Com Amor Se Paga
TTITLE18=Nosso Juramento
TTITLE19=Dê Carona Com a Saudade
TTITLE20=A Lua é Testemunha
TTITLE21=Fatalidade
TTITLE22=Cantando
TTITLE23=Pedaço de Minha Vida
TTITLE24=Musica 25
TTITLE25=Musica 26
EXTD=
EXTT0=
EXTT1=
EXTT2=
EXTT3=
EXTT4=
EXTT5=
EXTT6=
EXTT7=
EXTT8=
EXTT9=
EXTT10=
EXTT11=
EXTT12=
EXTT13=
EXTT14=
EXTT15=
EXTT16=
EXTT17=
EXTT18=
EXTT19=
EXTT20=
EXTT21=
EXTT22=
EXTT23=
EXTT24=
EXTT25=
PLAYORDER=
